<svg width="454" height="250" viewBox="0 0 454 250" fill="none" xmlns="http://www.w3.org/2000/svg">
<path d="M375.457 23.9485C389.672 21.061 392.949 20.7283 396.059 21.7278C399.113 22.7829 401.223 24.6706 407.609 32.1672C414.773 40.4969 417.938 43.2735 430.433 52.1028C436.152 56.1566 439.929 61.5991 440.596 66.5969C441.429 72.9275 438.929 78.814 425.99 101.36C424.102 104.691 421.27 109.578 419.77 112.188C411.885 126.015 406.61 138.399 404.889 147.062C404.278 150.005 403.444 154.392 403 156.78C402.389 159.945 401.668 161.833 400.335 163.721C397.503 167.608 394.893 168.664 383.731 170.496C370.348 172.662 348.025 176.272 337.474 177.993C332.59 178.77 328.483 179.546 328.366 179.658C327.866 180.158 330.032 186.878 330.921 187.544C331.421 187.933 332.42 188.266 333.197 188.266C336.529 188.321 341.86 191.82 343.582 195.041C346.303 200.261 341.916 207.869 334.03 211.645C323.535 216.643 311.984 215.477 307.486 208.924C304.543 204.704 305.432 200.15 310.097 195.097L312.429 192.598L309.652 190.043C308.098 188.655 305.932 186.934 304.821 186.156L302.767 184.823L297.047 186.323C289.661 188.211 266.782 195.263 266.115 195.819C266.005 195.93 266.726 197.263 267.726 198.818C268.892 200.65 270.002 201.705 271.002 201.927C278.221 203.482 282.72 207.647 282.72 212.866C282.72 215.476 280.221 220.142 277.722 222.141C272.224 226.528 262.728 229.193 256.397 228.194C249.123 227.027 245.514 223.917 245.069 218.642C244.792 214.866 245.958 212.256 249.512 208.48C252.233 205.592 252.288 205.425 251.622 203.815C251.233 202.871 250.511 202.149 249.956 202.149C249.401 202.149 246.179 203.427 242.792 204.926C239.405 206.481 236.461 207.702 236.239 207.702C236.012 207.705 227.518 211.869 217.304 216.976L198.7 226.195L196.424 225.417C194.425 224.751 194.146 224.417 194.146 222.974C194.146 221.475 194.758 220.864 199.922 217.254C208.085 211.59 222.634 202.982 232.463 198.095C267.836 180.436 303.988 170.496 366.738 161.333C383.675 158.834 391.117 157.39 391.839 156.391C392.227 155.89 392.727 153.725 392.893 151.615C394.004 140.565 399.336 126.404 408.221 111.077C409.387 109.078 411.996 104.469 414.106 100.804C416.161 97.1389 419.216 91.8638 420.882 89.1428C422.548 86.3663 424.99 81.9234 426.323 79.2024C431.154 69.3733 429.933 66.7635 415.717 56.3792C409.886 52.1033 406.665 49.049 398.669 40.1086C395.004 36.1111 391.618 32.5574 391.061 32.2786C390.395 31.8898 386.73 32.4451 379.566 33.8889C373.791 35.0551 362.462 37.3321 354.354 38.887C346.247 40.4418 334.141 42.8296 327.422 44.1624C320.703 45.4951 309.208 47.7166 301.878 49.1604C294.548 50.5487 283.052 52.8247 276.333 54.1575C269.614 55.4347 258.23 57.7116 251.066 59.0999C243.903 60.4881 232.13 62.7653 224.967 64.1536C211.473 66.8191 196.146 69.8172 174.155 74.1487L161.383 76.7034L160.439 75.5374C159.717 74.6489 159.606 74.0379 159.995 73.0383C160.328 72.0945 160.272 71.5392 159.661 71.095C158.717 70.2618 158.662 68.0961 159.606 67.3743C160.275 66.8742 169.106 65.0415 201.921 58.5452C210.473 56.8792 221.579 54.658 226.633 53.6584C231.686 52.6034 241.681 50.6042 248.845 49.1604C256.008 47.7166 267.393 45.495 274.112 44.1067C280.832 42.7739 292.715 40.4418 300.489 38.887C308.264 37.3321 319.537 35.1106 325.478 33.8889C331.42 32.7228 342.082 30.6122 349.079 29.2239C356.132 27.8356 367.96 25.4478 375.457 23.9485ZM126.454 31.3899C130.619 30.5015 137.671 30.3909 140.892 31.1682C144.279 32.0567 148.666 36.0543 150.388 39.8303C152.387 44.4949 153.054 49.8264 152.276 55.1018C149.167 75.2597 132.784 94.3071 108.239 106.246L101.965 109.301L100.353 115.908C95.7443 134.845 86.8602 160.834 81.0849 172.274C79.4749 175.438 79.0855 177.16 79.9179 177.16C81.0285 177.16 119.346 182.491 131.674 184.379C155.719 188.1 169.324 188.932 180.264 187.489C184.928 186.878 186.539 186.378 190.37 184.435C195.257 181.88 196.812 181.769 197.811 184.046C198.755 186.101 193.758 195.485 189.648 199.428C185.872 202.982 181.041 205.925 176.321 207.591C164.215 211.756 146.445 210.868 123.622 204.926C109.295 201.15 95.7446 197.929 82.8613 195.153L70.4228 192.487L68.9785 194.374C65.8132 198.65 57.9279 206.147 53.9296 208.813C45.1001 214.588 33.7719 216.865 25.7753 214.421C22.8322 213.588 21.1101 212.589 18.9999 210.701C14.6686 206.814 13.78 204.648 14.0576 198.818C14.2797 194.486 14.447 193.764 16.3349 190.655C18.7783 186.601 22.2212 183.49 26.9413 180.88C33.3274 177.326 41.7686 175.494 51.9863 175.494H58.206L60.3154 169.775C67.0344 151.672 76.9742 118.41 75.9755 117.408C75.8089 117.242 73.3659 117.631 70.4785 118.241C58.5947 120.796 51.3752 120.851 49.4316 118.463C48.0989 116.908 49.1536 109.189 50.8749 107.745C51.3192 107.412 54.1518 106.857 57.206 106.635C61.6482 106.246 79.7492 102.637 80.3622 102.081C80.4178 101.97 81.5284 98.3051 82.8056 93.8625C88.2476 74.7044 94.2453 59.6001 99.6318 51.4924C104.241 44.6065 111.35 38.1095 117.902 34.7776C120.79 33.3338 124.622 31.7786 126.454 31.3899ZM46.3769 192.209C37.9919 192.376 31.162 194.986 31.162 197.929C31.1621 199.65 32.3279 200.539 35.0488 200.872C36.8258 201.15 37.992 200.816 40.7685 199.428C44.1559 197.707 45.7112 196.54 48.3212 193.653L49.6533 192.154L46.3769 192.209ZM369.349 47.6047C375.9 46.4387 378.733 46.4388 379.178 47.5491C379.677 48.8818 374.069 74.9823 367.294 103.026C363.018 120.685 363.073 123.294 368.071 123.294C372.181 123.294 376.956 119.685 380.898 113.465C383.564 109.3 385.064 109.134 386.563 112.799C387.452 114.854 386.452 117.63 382.62 124.183C378.011 131.957 371.347 137.066 363.185 139.176C356.799 140.842 350.079 138.843 347.969 134.623C347.358 133.457 346.803 132.346 346.747 132.235C346.688 132.128 344.69 134.07 342.305 136.511C335.919 143.008 330.532 145.34 325.201 143.841C322.202 143.008 318.648 140.065 317.704 137.621C317.26 136.622 316.871 135.678 316.76 135.567C316.648 135.402 315.759 136.346 314.705 137.511C312.206 140.398 307.653 143.952 303.877 145.784C299.879 147.784 292.826 148.339 289.161 146.95C286.162 145.784 283.774 143.23 282.441 139.732C281.886 138.343 281.275 137.177 281.108 137.177C280.885 137.179 279.776 138.344 278.61 139.732C273.39 145.951 264.171 151.671 255.786 153.892C249.955 155.447 240.627 155.614 237.628 154.281C236.462 153.782 235.407 153.504 235.296 153.726C235.185 153.948 233.019 162.278 230.575 172.162C226.799 187.433 225.855 190.377 224.744 191.376C223.244 192.709 215.86 194.041 211.917 193.708C209.973 193.542 209.696 193.375 209.529 192.042C209.418 191.209 210.361 186.6 211.583 181.769C215.081 168.221 218.357 154.23 218.081 154.003C217.97 153.892 215.304 155.448 212.139 157.502C208.973 159.557 204.142 162.278 201.365 163.499C196.645 165.609 196.09 165.776 191.093 165.776C186.261 165.776 185.483 165.609 181.763 163.888C178.875 162.5 176.932 161.111 174.933 158.946L172.156 155.892L168.713 159.223C163.826 163.943 160.272 166.609 155.219 169.219C149.721 172.051 145.945 172.94 140.281 172.884C134.839 172.829 132.118 172.162 128.675 169.885C125.676 167.886 123.843 165.387 122.122 161C120.678 157.224 120.123 147.395 121.067 141.842C123.955 125.516 134.117 110.744 146.834 104.469C153.831 101.026 162.216 100.193 166.658 102.47C172.544 105.524 174.322 114.909 170.879 124.905C168.935 130.458 167.158 133.401 163.104 137.4C158.94 141.564 151.276 145.618 144.835 147.006C140.726 147.895 140.558 148.006 140.059 149.783C139.393 152.06 140.17 154.947 141.669 156.335C143.335 157.835 148.666 158.112 152.331 156.891C156.607 155.503 162.161 151.615 166.436 147.006C174.488 138.288 181.153 126.015 190.26 103.026C192.259 98.0833 193.592 96.0285 195.979 94.3625C199.589 91.9194 208.14 92.5304 209.251 95.3069C209.417 95.8625 208.918 98.1945 208.141 100.471C207.308 102.803 206.642 105.58 206.642 106.746C206.642 107.858 208.252 113.299 210.251 118.907C215.304 132.957 216.914 139.399 216.137 142.342C215.859 143.619 215.693 144.73 215.804 144.841C216.304 145.34 218.414 143.619 219.857 141.453C222.134 138.177 222.301 137.733 229.465 106.358C233.019 90.8091 233.019 90.8088 241.459 89.5872C249.011 88.5321 249.734 88.8095 249.179 92.6409L248.845 95.0842L251.455 92.8079C252.843 91.5306 255.62 89.6982 257.619 88.7542C260.673 87.2548 261.895 86.9767 265.282 86.9211C268.892 86.9211 269.559 87.0878 271.669 88.5872C274.778 90.8083 276.388 93.1965 277.832 97.9163C278.832 101.193 278.943 102.692 278.665 108.245C278.443 113.799 278.11 115.52 276.333 120.518C275.222 123.739 272.946 128.903 271.28 131.957C269.616 135.064 268.283 137.784 268.281 137.954C268.281 139.398 275.222 133.679 278.276 129.681C280.387 126.96 280.776 125.96 281.887 120.406C284.663 106.524 288.661 98.361 296.768 90.0315C303.155 83.4233 309.485 80.2572 316.038 80.3127C319.814 80.3683 324.09 81.9788 324.757 83.5891C325.257 84.9774 325.867 84.5335 326.256 82.5344C326.756 79.8135 328.199 78.8693 333.086 78.0364C338.972 76.9813 341.971 76.9814 342.582 78.092C342.915 78.6479 341.138 86.4781 337.362 101.471C331.421 125.126 331.254 126.404 333.642 128.125C336.085 129.958 341.082 127.515 344.914 122.628C347.58 119.352 347.802 118.574 350.468 105.691C351.634 99.9709 353.744 89.9751 355.132 83.5891C356.52 77.1477 358.408 68.3188 359.352 63.8762C361.574 53.3252 362.463 50.3815 363.629 49.3264C364.185 48.8266 366.739 48.0489 369.349 47.6047ZM192.759 119.407C192.537 119.407 191.204 121.851 189.815 124.794C188.372 127.793 185.539 133.457 183.429 137.455L179.598 144.674L182.707 147.506C186.761 151.227 187.982 151.782 190.87 151.448C193.535 151.171 195.646 149.727 197.756 146.784C198.922 145.118 199.144 144.229 199.144 140.842C199.144 137.566 198.644 135.455 196.145 128.125C194.481 123.353 192.982 119.413 192.759 119.407ZM260.229 103.026C257.675 100.416 254.398 101.582 249.622 106.802C247.79 108.801 245.624 111.689 244.791 113.188C242.07 118.186 238.349 135.123 239.071 139.01C239.516 141.287 241.626 143.285 243.681 143.285C244.403 143.285 245.902 142.786 247.068 142.231C252.899 139.232 261.617 118.574 261.617 107.857C261.617 104.914 261.395 104.136 260.229 103.026ZM157.773 114.409C156.385 113.021 155.274 113.021 152.72 114.409C148.833 116.464 145.834 121.129 143.002 129.458C141.947 132.568 141.114 135.344 141.114 135.622C141.114 136.511 143.779 135.678 148.722 133.29C152.553 131.402 153.609 130.569 155.774 127.682C157.163 125.849 158.44 123.572 158.606 122.573C159.384 118.13 159.106 115.742 157.773 114.409ZM317.26 91.6418C310.263 91.6419 301.766 105.469 299.101 121.184C298.156 127.015 298.435 128.959 300.601 130.791C302.544 132.457 303.877 132.512 306.931 131.124C312.706 128.514 316.593 120.518 320.48 103.303C322.257 95.4731 322.257 93.1406 320.48 92.1965C319.925 91.8634 318.481 91.6418 317.26 91.6418ZM133.395 45.55C127.176 42.2182 119.068 51.6593 112.793 69.5959C110.294 76.6486 106.074 91.752 106.463 92.1409C106.907 92.6407 116.403 85.7554 120.234 82.2014C129.619 73.3164 136.116 61.3215 136.116 52.7141C136.116 49.1046 135.117 46.4941 133.395 45.55Z" fill="white"/>
</svg>
