<svg width="512" height="512" viewBox="0 0 512 512" fill="none" xmlns="http://www.w3.org/2000/svg">
<path d="M298.36 66.953C294.566 67.7577 286.635 70.9763 280.658 73.965C267.093 80.862 252.38 94.3111 242.839 108.565C231.689 125.348 219.274 156.614 208.009 196.272C205.365 205.468 203.066 213.055 202.951 213.284C201.687 214.434 164.213 221.906 155.017 222.71C148.695 223.17 142.832 224.32 141.913 225.009C138.349 227.998 136.165 243.976 138.924 247.195C142.947 252.138 157.891 252.023 182.49 246.735C188.468 245.471 193.525 244.666 193.87 245.011C195.939 247.08 175.363 315.935 161.454 353.409L157.086 365.249H144.212C123.061 365.249 105.588 369.042 92.3692 376.399C82.5985 381.801 75.4716 388.239 70.4137 396.63C66.5054 403.067 66.1606 404.561 65.7008 413.528C65.126 425.597 66.9652 430.08 75.9314 438.127C80.2995 442.035 83.8629 444.104 89.9553 445.829C106.508 450.886 129.958 446.173 148.235 434.219C156.511 428.701 172.834 413.183 179.386 404.332L182.375 400.423L208.124 405.941C234.792 411.688 262.84 418.355 292.497 426.172C339.742 438.472 376.526 440.311 401.585 431.69C411.356 428.241 421.356 422.149 429.173 414.792C437.679 406.631 448.025 387.204 446.071 382.951C444.002 378.238 440.783 378.468 430.667 383.755C422.736 387.779 419.402 388.813 409.746 390.078C387.101 393.066 358.939 391.342 309.165 383.641C283.646 379.732 204.331 368.697 202.032 368.697C200.307 368.697 201.112 365.134 204.446 358.581C216.4 334.902 234.792 281.105 244.333 241.907L247.667 228.228L260.656 221.906C311.464 197.191 345.374 157.764 351.812 116.037C353.421 105.116 352.042 94.0812 347.903 84.4254C344.34 76.6088 335.259 68.3324 328.247 66.4932C321.58 64.8839 306.981 65.1138 298.36 66.953ZM312.729 96.2653C316.292 98.2194 318.361 103.622 318.361 111.094C318.361 128.911 304.912 153.74 285.485 172.132C277.554 179.489 257.897 193.743 256.978 192.708C256.173 191.904 264.909 160.637 270.082 146.039C283.071 108.91 299.854 89.3683 312.729 96.2653ZM136.625 402.837C131.222 408.815 128.004 411.229 120.992 414.792C115.244 417.666 112.83 418.355 109.152 417.781C103.519 417.091 101.105 415.252 101.105 411.688C101.105 405.596 115.244 400.193 132.602 399.849L139.384 399.734L136.625 402.837Z" fill="white"/>
</svg>
