<svg width="454" height="250" viewBox="0 0 454 250" fill="none" xmlns="http://www.w3.org/2000/svg">
<path d="M375.456 23.9489C389.672 21.0613 392.949 20.7277 396.059 21.7272C399.113 22.7823 401.224 24.6709 407.61 32.1677C414.773 40.4972 417.939 43.2738 430.433 52.1032C436.153 56.157 439.929 61.5995 440.595 66.5974C441.428 72.9277 438.929 78.8142 425.991 101.359C424.103 104.691 421.27 109.578 419.771 112.188C411.885 126.015 406.61 138.399 404.888 147.062C404.277 150.005 403.445 154.392 403 156.78C402.39 159.945 401.668 161.833 400.335 163.721C397.503 167.609 394.893 168.663 383.731 170.496C370.348 172.662 348.024 176.271 337.473 177.993C332.59 178.77 328.483 179.547 328.367 179.659C327.867 180.159 330.032 186.878 330.92 187.545C331.42 187.933 332.42 188.266 333.198 188.266C336.529 188.322 341.86 191.82 343.581 195.041C346.302 200.261 341.916 207.869 334.031 211.645C323.535 216.643 311.985 215.476 307.487 208.924C304.544 204.703 305.431 200.15 310.096 195.096L312.429 192.597L309.652 190.044C308.097 188.655 305.931 186.933 304.821 186.156L302.766 184.823L297.046 186.323C289.66 188.211 266.782 195.264 266.116 195.819C266.005 195.931 266.727 197.263 267.726 198.817C268.892 200.65 270.003 201.705 271.002 201.927C278.221 203.482 282.719 207.647 282.719 212.867C282.719 215.477 280.22 220.141 277.721 222.14C272.224 226.527 262.728 229.192 256.398 228.193C249.123 227.027 245.513 223.918 245.069 218.642C244.791 214.866 245.957 212.256 249.511 208.48C252.232 205.593 252.288 205.426 251.621 203.815C251.233 202.871 250.511 202.149 249.955 202.149C249.399 202.15 246.179 203.426 242.792 204.925C239.406 206.48 236.463 207.701 236.24 207.702C236.017 207.702 227.521 211.867 217.303 216.976L198.701 226.194L196.423 225.417C194.424 224.75 194.147 224.417 194.147 222.973C194.147 221.474 194.758 220.863 199.922 217.254C208.085 211.589 222.634 202.982 232.463 198.095C267.837 180.436 303.988 170.496 366.739 161.334C383.674 158.835 391.115 157.391 391.838 156.391C392.227 155.892 392.727 153.726 392.894 151.616C394.005 140.565 399.335 126.404 408.22 111.078C409.386 109.079 411.997 104.469 414.107 100.804C416.161 97.1393 419.215 91.8633 420.881 89.1423C422.547 86.3658 424.991 81.9238 426.324 79.2028C431.155 69.3738 429.933 66.763 415.717 56.3786C409.887 52.1028 406.666 49.0485 398.669 40.1081C395.004 36.1098 391.616 32.5557 391.061 32.278C390.394 31.8897 386.728 32.4448 379.566 33.8884C373.79 35.0545 362.462 37.3316 354.355 38.8864C346.247 40.4413 334.142 42.829 327.422 44.1618C320.703 45.4946 309.207 47.716 301.877 49.1599C294.547 50.5481 283.053 52.8252 276.333 54.1579C269.614 55.4351 258.23 57.712 251.067 59.1003C243.903 60.4886 232.13 62.7647 224.966 64.153C211.472 66.8185 196.146 69.8177 174.156 74.1491L161.383 76.7038L160.439 75.5378C159.717 74.6494 159.606 74.0381 159.995 73.0388C160.328 72.0948 160.272 71.5396 159.661 71.0954C158.718 70.2625 158.662 68.0969 159.606 67.3747C160.272 66.8749 169.102 65.0418 201.921 58.5446C210.473 56.8787 221.579 54.6575 226.632 53.6579C231.686 52.6028 241.682 50.6037 248.845 49.1599C256.009 47.716 267.392 45.4944 274.112 44.1061C280.831 42.7734 292.715 40.4413 300.49 38.8864C308.264 37.3315 319.537 35.11 325.479 33.8884C331.421 32.7222 342.083 30.6126 349.079 29.2243C356.132 27.836 367.96 25.4483 375.456 23.9489ZM126.453 31.3903C130.618 30.5018 137.671 30.3902 140.892 31.1677C144.279 32.0562 148.667 36.0546 150.388 39.8307C152.387 44.4954 153.053 49.8268 152.276 55.1022C149.166 75.26 132.784 94.3076 108.24 106.247L101.964 109.3L100.354 115.909C95.7448 134.845 86.8596 160.834 81.0844 172.273C79.474 175.438 79.0854 177.16 79.9183 177.16C81.029 177.16 119.346 182.491 131.674 184.379C155.719 188.099 169.324 188.933 180.264 187.489C184.928 186.878 186.539 186.378 190.37 184.434C195.257 181.88 196.812 181.769 197.812 184.046C198.756 186.1 193.758 195.486 189.649 199.428C185.873 202.982 181.041 205.926 176.321 207.591C164.215 211.756 146.445 210.867 123.621 204.925C109.294 201.149 95.7449 197.929 82.8617 195.152L70.4222 192.487L68.9789 194.375C65.8136 198.651 57.9284 206.148 53.9301 208.813C45.1006 214.588 33.7713 216.865 25.7748 214.422C22.8319 213.589 21.1105 212.589 19.0004 210.701C14.669 206.814 13.7803 204.648 14.058 198.817C14.2801 194.486 14.4473 193.764 16.3353 190.654C18.7787 186.6 22.2217 183.49 26.9418 180.881C33.3278 177.327 41.7683 175.494 51.9857 175.494H58.2054L60.3158 169.774C67.035 151.671 76.9753 118.408 75.976 117.408C75.8094 117.241 73.3655 117.63 70.4779 118.241C58.5949 120.795 51.3761 120.851 49.432 118.464C48.0993 116.909 49.154 109.19 50.8754 107.746C51.3196 107.413 54.1522 106.858 57.2064 106.635C61.6493 106.247 79.7496 102.637 80.3627 102.082C80.4182 101.971 81.5288 98.3054 82.806 93.863C88.2481 74.7046 94.2457 59.5995 99.6322 51.4919C104.241 44.6061 111.349 38.1089 117.902 34.777C120.789 33.3333 124.621 31.7792 126.453 31.3903ZM46.3773 192.209C37.9924 192.375 31.162 194.985 31.1615 197.928C31.1615 199.65 32.3282 200.539 35.0492 200.872C36.8261 201.149 37.9924 200.817 40.7689 199.428C44.1562 197.707 45.7109 196.54 48.3207 193.653L49.6537 192.153L46.3773 192.209ZM369.348 47.6052C375.9 46.4391 378.733 46.439 379.177 47.5495C379.677 48.8822 374.068 74.9818 367.293 103.025C363.018 120.684 363.073 123.294 368.071 123.295C372.18 123.295 376.956 119.685 380.899 113.466C383.564 109.301 385.064 109.134 386.563 112.799C387.451 114.854 386.452 117.631 382.62 124.183C378.011 131.958 371.347 137.066 363.184 139.176C356.798 140.842 350.079 138.843 347.969 134.623C347.359 133.457 346.803 132.347 346.747 132.235C346.692 132.124 344.692 134.068 342.304 136.511C335.918 143.008 330.531 145.341 325.201 143.841C322.202 143.008 318.649 140.065 317.704 137.622C317.26 136.623 316.871 135.679 316.76 135.567C316.649 135.4 315.761 136.344 314.705 137.51C312.207 140.398 307.652 143.952 303.876 145.785C299.878 147.784 292.825 148.339 289.161 146.951C286.162 145.785 283.775 143.23 282.442 139.732C281.886 138.344 281.275 137.177 281.109 137.177C280.886 137.178 279.776 138.344 278.61 139.732C273.39 145.952 264.172 151.671 255.786 153.892C249.956 155.447 240.626 155.614 237.627 154.281C236.462 153.781 235.407 153.504 235.295 153.725C235.184 153.947 233.019 162.277 230.576 172.162C226.8 187.432 225.855 190.376 224.745 191.376C223.245 192.708 215.859 194.042 211.916 193.709C209.973 193.542 209.695 193.375 209.529 192.043C209.418 191.21 210.362 186.6 211.583 181.769C215.082 168.22 218.358 154.226 218.08 154.004C217.969 153.893 215.304 155.447 212.139 157.502C208.974 159.556 204.142 162.278 201.366 163.5C196.646 165.61 196.09 165.776 191.092 165.776C186.261 165.776 185.483 165.61 181.763 163.888C178.876 162.5 176.932 161.112 174.933 158.946L172.157 155.891L168.713 159.223C163.826 163.944 160.272 166.609 155.219 169.219C149.722 172.051 145.945 172.94 140.281 172.884C134.839 172.829 132.118 172.162 128.675 169.885C125.677 167.886 123.844 165.387 122.122 161.001C120.679 157.225 120.123 147.395 121.067 141.841C123.954 125.516 134.117 110.745 146.833 104.469C153.83 101.026 162.216 100.194 166.659 102.47C172.545 105.525 174.322 114.909 170.879 124.905C168.936 130.458 167.158 133.401 163.105 137.399C158.94 141.564 151.276 145.618 144.834 147.007C140.725 147.895 140.559 148.006 140.059 149.783C139.393 152.06 140.17 154.947 141.669 156.336C143.335 157.835 148.666 158.113 152.331 156.891C156.607 155.503 162.161 151.616 166.437 147.007C174.489 138.288 181.152 126.015 190.259 103.025C192.258 98.0832 193.591 96.0288 195.979 94.363C199.588 91.9196 208.14 92.5299 209.251 95.3063C209.418 95.8616 208.918 98.1946 208.141 100.471C207.308 102.803 206.641 105.579 206.641 106.746C206.641 107.856 208.251 113.299 210.25 118.908C215.304 132.957 216.914 139.398 216.137 142.341C215.859 143.619 215.693 144.729 215.804 144.841C216.304 145.34 218.414 143.619 219.858 141.453C222.134 138.177 222.301 137.731 229.464 106.357C233.018 90.8085 233.019 90.8083 241.459 89.5866C249.012 88.5315 249.733 88.8096 249.178 92.6413L248.845 95.0847L251.455 92.8073C252.844 91.5301 255.621 89.6975 257.62 88.7536C260.673 87.2545 261.895 86.9771 265.283 86.9216C268.892 86.9216 269.558 87.0883 271.668 88.5876C274.778 90.8088 276.389 93.1965 277.832 97.9167C278.832 101.193 278.943 102.693 278.665 108.246C278.443 113.799 278.11 115.521 276.333 120.518C275.223 123.739 272.946 128.904 271.28 131.958C269.614 135.067 268.281 137.788 268.281 137.955C268.281 139.399 275.223 133.679 278.277 129.68C280.387 126.959 280.776 125.96 281.886 120.407C284.663 106.524 288.661 98.3607 296.769 90.0309C303.155 83.4228 309.486 80.2576 316.038 80.3132C319.814 80.3688 324.09 81.9792 324.756 83.5895C325.256 84.9777 325.868 84.5336 326.256 82.5349C326.756 79.8138 328.2 78.8698 333.086 78.0368C338.972 76.9818 341.971 76.981 342.582 78.0915C342.916 78.6468 341.139 86.4771 337.363 101.47C331.421 125.127 331.254 126.404 333.642 128.126C336.085 129.958 341.083 127.514 344.914 122.628C347.58 119.351 347.802 118.574 350.467 105.691C351.633 99.9714 353.744 89.9757 355.132 83.5895C356.52 77.1479 358.409 68.3182 359.353 63.8757C361.574 53.3258 362.462 50.3822 363.628 49.3268C364.184 48.8271 366.738 48.0494 369.348 47.6052ZM192.758 119.407C192.536 119.408 191.203 121.851 189.815 124.794C188.371 127.792 185.539 133.457 183.429 137.455L179.597 144.674L182.707 147.507C186.761 151.227 187.983 151.782 190.87 151.449C193.536 151.171 195.646 149.727 197.756 146.784C198.922 145.118 199.145 144.23 199.145 140.842C199.145 137.566 198.645 135.456 196.146 128.126C194.48 123.35 192.98 119.407 192.758 119.407ZM260.229 103.025C257.674 100.415 254.398 101.582 249.622 106.801C247.79 108.801 245.624 111.689 244.791 113.188C242.07 118.186 238.35 135.122 239.072 139.009C239.516 141.286 241.626 143.286 243.681 143.286C244.403 143.286 245.902 142.786 247.068 142.231C252.898 139.232 261.617 118.575 261.618 107.857C261.618 104.914 261.395 104.136 260.229 103.025ZM157.774 114.41C156.386 113.022 155.275 113.022 152.72 114.41C148.833 116.465 145.834 121.129 143.002 129.459C141.947 132.568 141.114 135.345 141.114 135.623C141.114 136.511 143.78 135.677 148.722 133.29C152.553 131.402 153.609 130.569 155.775 127.681C157.163 125.849 158.44 123.573 158.607 122.573C159.384 118.131 159.106 115.743 157.774 114.41ZM317.26 91.6413C310.263 91.6413 301.766 105.469 299.101 121.184C298.157 127.015 298.434 128.959 300.6 130.792C302.544 132.458 303.877 132.513 306.931 131.125C312.706 128.515 316.594 120.518 320.481 103.303C322.258 95.4737 322.258 93.1411 320.481 92.197C319.926 91.8638 318.482 91.6413 317.26 91.6413ZM133.395 45.5505C127.175 42.2189 119.068 51.6591 112.793 69.5954C110.295 76.6474 106.074 91.7504 106.462 92.1413C106.907 92.6411 116.402 85.7549 120.234 82.2009C129.619 73.3158 136.117 61.3209 136.117 52.7136C136.116 49.1042 135.116 46.4945 133.395 45.5505Z" fill="black"/>
</svg>
